<svg width="120" height="120" viewBox="0 0 120 120" fill="none" xmlns="http://www.w3.org/2000/svg">
<g clip-path="url(#clip0_1919_25358)">
<g clip-path="url(#clip1_1919_25358)">
<g filter="url(#filter0_d_1919_25358)">
<path d="M60 96.5C80.1584 96.5 96.5 80.1584 96.5 60C96.5 39.8416 80.1584 23.5 60 23.5C39.8416 23.5 23.5 39.8416 23.5 60C23.5 80.1584 39.8416 96.5 60 96.5Z" fill="white"/>
<path d="M60 96.5C80.1584 96.5 96.5 80.1584 96.5 60C96.5 39.8416 80.1584 23.5 60 23.5C39.8416 23.5 23.5 39.8416 23.5 60C23.5 80.1584 39.8416 96.5 60 96.5Z" stroke="#AB0000" stroke-width="5.475" stroke-linecap="round" stroke-linejoin="round"/>
</g>
<path d="M70.9479 49.0508L49.0479 70.9508" stroke="#AB0000" stroke-width="5.475" stroke-linecap="round" stroke-linejoin="round"/>
<path d="M49.0479 49.0508L70.9479 70.9508" stroke="#AB0000" stroke-width="5.475" stroke-linecap="round" stroke-linejoin="round"/>
</g>
</g>
<defs>
<filter id="filter0_d_1919_25358" x="-3.2373" y="-3.2373" width="126.475" height="126.475" filterUnits="userSpaceOnUse" color-interpolation-filters="sRGB">
<feFlood flood-opacity="0" result="BackgroundImageFix"/>
<feColorMatrix in="SourceAlpha" type="matrix" values="0 0 0 0 0 0 0 0 0 0 0 0 0 0 0 0 0 0 127 0" result="hardAlpha"/>
<feOffset/>
<feGaussianBlur stdDeviation="12"/>
<feComposite in2="hardAlpha" operator="out"/>
<feColorMatrix type="matrix" values="0 0 0 0 0.670833 0 0 0 0 0 0 0 0 0 0 0 0 0 0.24 0"/>
<feBlend mode="normal" in2="BackgroundImageFix" result="effect1_dropShadow_1919_25358"/>
<feBlend mode="normal" in="SourceGraphic" in2="effect1_dropShadow_1919_25358" result="shape"/>
</filter>
<clipPath id="clip0_1919_25358">
<rect width="120" height="120" fill="white"/>
</clipPath>
<clipPath id="clip1_1919_25358">
<rect width="120" height="120" fill="white"/>
</clipPath>
</defs>
</svg>
