<svg width="20" height="18" viewBox="0 0 20 18" fill="none" xmlns="http://www.w3.org/2000/svg">
<path d="M1.25391 14.1973C2.58594 14.1973 3.67578 15.2814 3.75 16.6497C3.07031 16.5767 2.35156 16.4224 1.57031 16.1625C1.41797 16.1138 1.25391 15.927 1.25391 15.6428V14.1973ZM1.25391 12.898V7.05102C3.19531 7.05102 4.79297 5.5162 4.98438 3.55098C7.08594 3.54692 8.83203 2.94193 10.4492 2.3816L10.6172 2.32475C12.0781 1.8172 13.4492 1.36244 15.0078 1.3056C15.0586 3.41293 16.7188 5.10204 18.7578 5.10204V10.949C16.8164 10.949 15.2188 12.4838 15.0273 14.449C12.9258 14.4531 11.1797 15.0581 9.5625 15.6225L9.39453 15.6793C7.93359 16.1869 6.5625 16.6416 5.00391 16.6944C4.95313 14.5871 3.29297 12.898 1.25391 12.898ZM18.5547 15.0012C17.75 14.7495 16.9922 14.5952 16.2734 14.518C16.4297 13.239 17.4805 12.2524 18.7539 12.2524V14.9525C18.75 14.9566 18.7422 14.9647 18.7266 14.9769C18.6797 15.0093 18.6133 15.0215 18.5547 15.0053V15.0012ZM18.7539 2.35723V3.80273C17.4219 3.80273 16.332 2.71861 16.2578 1.35026C16.9375 1.42335 17.6562 1.57764 18.4375 1.83751C18.5898 1.88623 18.7539 2.07301 18.7539 2.35723ZM1.25391 5.7517V3.05156C1.25781 3.0475 1.26562 3.03938 1.28125 3.0272C1.32812 2.99471 1.39453 2.98253 1.45312 2.99877C2.25781 3.25052 3.01562 3.40481 3.73438 3.48196C3.57812 4.76097 2.52734 5.74764 1.25391 5.74764V5.7517ZM0.00390625 3.05156V15.6428C0.00390625 16.4305 0.464844 17.1573 1.1875 17.4009C4.85938 18.619 7.39063 17.742 9.91016 16.869C12.3477 16.0244 14.7695 15.1839 18.1953 16.2478C19.0625 16.5157 20 15.8904 20 14.9484V2.35723C20 1.56952 19.5391 0.842716 18.8164 0.599094C15.1445 -0.619017 12.6133 0.258023 10.0938 1.131C7.65625 1.97556 5.23438 2.81606 1.80859 1.75224C0.941406 1.48425 0 2.10955 0 3.05156H0.00390625ZM8.28906 6.40948C8.76172 5.76795 9.375 5.42687 10.0039 5.42687C10.6328 5.42687 11.2461 5.76795 11.7188 6.40948C12.1914 7.05102 12.5039 7.96461 12.5039 9C12.5039 10.0354 12.1914 10.949 11.7188 11.5905C11.2461 12.2321 10.6328 12.5731 10.0039 12.5731C9.375 12.5731 8.76172 12.2321 8.28906 11.5905C7.81641 10.949 7.50391 10.0354 7.50391 9C7.50391 7.96461 7.81641 7.05102 8.28906 6.40948ZM7.29688 5.61771C6.64062 6.50693 6.25391 7.70474 6.25391 9C6.25391 10.2953 6.64062 11.4931 7.29688 12.3823C7.95703 13.2715 8.90625 13.8724 10.0039 13.8724C11.1016 13.8724 12.0508 13.2715 12.7109 12.3823C13.3672 11.4931 13.7539 10.2953 13.7539 9C13.7539 7.70474 13.3672 6.50693 12.7109 5.61771C12.0508 4.72849 11.1016 4.12756 10.0039 4.12756C8.90625 4.12756 7.95703 4.72849 7.29688 5.61771ZM9.37891 7.05102C9.03516 7.05102 8.75391 7.34337 8.75391 7.70068C8.75391 8.05799 9.03516 8.35034 9.37891 8.35034V9.64966C9.03516 9.64966 8.75391 9.94201 8.75391 10.2993C8.75391 10.6566 9.03516 10.949 9.37891 10.949H10.6289C10.9727 10.949 11.2539 10.6566 11.2539 10.2993C11.2539 9.94201 10.9727 9.64966 10.6289 9.64966V7.70068C10.6289 7.34337 10.3477 7.05102 10.0039 7.05102H9.37891Z" fill="#884EA7"/>
</svg>
