<svg width="20" height="20" viewBox="0 0 20 20" fill="none" xmlns="http://www.w3.org/2000/svg">
<path d="M1.66797 7.5013C2.33101 7.5013 2.96689 7.76469 3.43574 8.23354C3.90458 8.70238 4.16797 9.33826 4.16797 10.0013C4.16797 10.6643 3.90458 11.3002 3.43574 11.7691C2.96689 12.2379 2.33101 12.5013 1.66797 12.5013V14.168C1.66797 14.61 1.84356 15.0339 2.15612 15.3465C2.46868 15.659 2.89261 15.8346 3.33464 15.8346H16.668C17.11 15.8346 17.5339 15.659 17.8465 15.3465C18.159 15.0339 18.3346 14.61 18.3346 14.168V12.5013C17.6716 12.5013 17.0357 12.2379 16.5669 11.7691C16.098 11.3002 15.8346 10.6643 15.8346 10.0013C15.8346 9.33826 16.098 8.70238 16.5669 8.23354C17.0357 7.76469 17.6716 7.5013 18.3346 7.5013V5.83464C18.3346 5.39261 18.159 4.96868 17.8465 4.65612C17.5339 4.34356 17.11 4.16797 16.668 4.16797H3.33464C2.89261 4.16797 2.46868 4.34356 2.15612 4.65612C1.84356 4.96868 1.66797 5.39261 1.66797 5.83464V7.5013Z" stroke="#AB0000" stroke-width="1.5" stroke-linecap="round" stroke-linejoin="round"/>
<path d="M7.5 9.9987L9.16667 11.6654L12.5 8.33203" stroke="#AB0000" stroke-width="1.5" stroke-linecap="round" stroke-linejoin="round"/>
</svg>
