<svg width="20" height="20" viewBox="0 0 20 20" fill="none" xmlns="http://www.w3.org/2000/svg">
<path d="M1.66699 7.5013C2.33003 7.5013 2.96592 7.76469 3.43476 8.23354C3.9036 8.70238 4.16699 9.33826 4.16699 10.0013C4.16699 10.6643 3.9036 11.3002 3.43476 11.7691C2.96592 12.2379 2.33003 12.5013 1.66699 12.5013V14.168C1.66699 14.61 1.84259 15.0339 2.15515 15.3465C2.46771 15.659 2.89163 15.8346 3.33366 15.8346H16.667C17.109 15.8346 17.5329 15.659 17.8455 15.3465C18.1581 15.0339 18.3337 14.61 18.3337 14.168V12.5013C17.6706 12.5013 17.0347 12.2379 16.5659 11.7691C16.0971 11.3002 15.8337 10.6643 15.8337 10.0013C15.8337 9.33826 16.0971 8.70238 16.5659 8.23354C17.0347 7.76469 17.6706 7.5013 18.3337 7.5013V5.83464C18.3337 5.39261 18.1581 4.96868 17.8455 4.65612C17.5329 4.34356 17.109 4.16797 16.667 4.16797H3.33366C2.89163 4.16797 2.46771 4.34356 2.15515 4.65612C1.84259 4.96868 1.66699 5.39261 1.66699 5.83464V7.5013Z" stroke="#AB0000" stroke-width="1.5" stroke-linecap="round" stroke-linejoin="round"/>
<path d="M7.91699 12.0846L12.0837 7.91797" stroke="#AB0000" stroke-width="1.5" stroke-linecap="round" stroke-linejoin="round"/>
<path d="M7.91699 7.91797L12.0837 12.0846" stroke="#AB0000" stroke-width="1.5" stroke-linecap="round" stroke-linejoin="round"/>
</svg>
