<svg width="16" height="16" viewBox="0 0 16 16" fill="none" xmlns="http://www.w3.org/2000/svg">
<g clip-path="url(#clip0_3224_60383)">
<path d="M11.727 8.51192C11.9771 8.76202 12.3163 8.90253 12.67 8.90253C13.0237 8.90253 13.3629 8.76202 13.613 8.51192C13.8631 8.26182 14.0036 7.92262 14.0036 7.56892C14.0036 7.21523 13.8631 6.87602 13.613 6.62592L12.4344 5.44792C12.6845 5.69793 13.0236 5.83835 13.3773 5.83829C13.5524 5.83826 13.7257 5.80374 13.8875 5.7367C14.0493 5.66967 14.1962 5.57143 14.32 5.44759C14.4438 5.32375 14.542 5.17675 14.609 5.01496C14.676 4.85318 14.7104 4.67979 14.7104 4.50469C14.7104 4.32959 14.6758 4.15621 14.6088 3.99445C14.5418 3.83269 14.4435 3.68572 14.3197 3.56192L12.4344 1.67659C12.1843 1.42649 11.8452 1.28595 11.4916 1.28589C11.138 1.28583 10.7988 1.42625 10.5487 1.67626C10.2986 1.92627 10.158 2.26539 10.158 2.61902C10.1579 2.97265 10.2983 3.31182 10.5484 3.56192L9.37035 2.38326C9.24652 2.25942 9.0995 2.16119 8.9377 2.09417C8.7759 2.02715 8.60248 1.99265 8.42735 1.99265C8.25222 1.99265 8.07881 2.02715 7.917 2.09417C7.7552 2.16119 7.60819 2.25942 7.48435 2.38326C7.36052 2.50709 7.26228 2.65411 7.19526 2.81591C7.12824 2.97771 7.09375 3.15113 7.09375 3.32626C7.09375 3.50139 7.12824 3.6748 7.19526 3.8366C7.26228 3.9984 7.36052 4.14542 7.48435 4.26926L11.727 8.51192Z" stroke="#329DFF" stroke-linecap="round" stroke-linejoin="round"/>
<path d="M1.66406 14.3332L2.5974 13.3999" stroke="#329DFF" stroke-linecap="round" stroke-linejoin="round"/>
<path d="M13.3984 2.60008L14.3318 1.66675" stroke="#329DFF" stroke-linecap="round" stroke-linejoin="round"/>
<path d="M3.5651 14.3233C3.81511 14.5734 4.15423 14.714 4.50786 14.714C4.68296 14.7141 4.85635 14.6796 5.01814 14.6126C5.17992 14.5457 5.32693 14.4475 5.45076 14.3237C5.5746 14.1999 5.67284 14.0529 5.73988 13.8912C5.80691 13.7294 5.84143 13.556 5.84146 13.3809C5.8415 13.2058 5.80704 13.0324 5.74006 12.8706C5.67308 12.7089 5.57489 12.5619 5.4511 12.438L6.6291 13.6167C6.8792 13.8668 7.2184 14.0073 7.5721 14.0073C7.92579 14.0073 8.265 13.8668 8.5151 13.6167C8.7652 13.3666 8.9057 13.0274 8.9057 12.6737C8.9057 12.32 8.7652 11.9808 8.5151 11.7307L4.27243 7.48802C4.14859 7.36418 4.00158 7.26595 3.83978 7.19893C3.67798 7.13191 3.50456 7.09741 3.32943 7.09741C3.1543 7.09741 2.98088 7.13191 2.81908 7.19893C2.65728 7.26595 2.51027 7.36418 2.38643 7.48802C2.26259 7.61185 2.16436 7.75887 2.09734 7.92067C2.03032 8.08247 1.99583 8.25588 1.99583 8.43101C1.99583 8.60615 2.03032 8.77956 2.09734 8.94136C2.16436 9.10316 2.26259 9.25018 2.38643 9.37402L3.5651 10.552C3.315 10.302 2.97583 10.1616 2.62219 10.1616C2.26856 10.1617 1.92944 10.3022 1.67943 10.5523C1.42942 10.8024 1.289 11.1416 1.28906 11.4953C1.28913 11.8489 1.42966 12.188 1.67976 12.438L3.5651 14.3233Z" stroke="#329DFF" stroke-linecap="round" stroke-linejoin="round"/>
<path d="M6.39844 9.5999L9.59844 6.3999" stroke="#329DFF" stroke-linecap="round" stroke-linejoin="round"/>
</g>
<defs>
<clipPath id="clip0_3224_60383">
<rect width="16" height="16" fill="white"/>
</clipPath>
</defs>
</svg>
